<svg width="301" height="200" viewBox="0 0 301 200" fill="none" xmlns="http://www.w3.org/2000/svg">
<path d="M88.4532 48.9044L43.5729 78.9265L87.7798 145.012L132.66 114.99L88.4532 48.9044Z" fill="#F5F5F5"/>
<path d="M109.468 111.864L108.96 115.016L86.6479 111.8L87.156 108.648L109.468 111.864Z" fill="#E0E0E0"/>
<path d="M98.2319 100.62L101.432 101.08L97.8839 123.048L94.6799 122.584L98.2319 100.62Z" fill="#E0E0E0"/>
<path d="M77.7 72.7C77.732 72.744 73.236 75.812 67.656 79.54C62.076 83.268 57.528 86.26 57.496 86.212C57.464 86.164 61.96 83.1 67.54 79.368C73.12 75.636 77.648 72.652 77.7 72.7Z" fill="#E0E0E0"/>
<path d="M94.188 68.556C94.22 68.604 86.74 73.66 77.484 79.852C68.228 86.044 60.684 91.024 60.66 90.98C60.636 90.936 68.1 85.872 77.368 79.68C86.636 73.488 94.156 68.508 94.188 68.556Z" fill="#E0E0E0"/>
<path d="M97.496 73.5001C97.528 73.5481 90.048 78.6081 80.792 84.8001C71.536 90.9921 63.992 95.9721 63.968 95.9241C63.944 95.8761 71.416 90.8201 80.676 84.6241C89.936 78.4281 97.464 73.4521 97.496 73.5001Z" fill="#E0E0E0"/>
<path d="M100.804 78.4481C100.836 78.4961 93.3559 83.5561 84.0999 89.7441C74.8439 95.9321 67.2999 100.92 67.2999 100.872C67.2999 100.824 74.7439 95.7641 84.0039 89.5721C93.2639 83.3801 100.772 78.4001 100.804 78.4481Z" fill="#E0E0E0"/>
<path d="M104.1 83.3961C104.132 83.4441 96.652 88.5001 87.396 94.6921C78.14 100.884 70.596 105.864 70.576 105.816C70.556 105.768 78.032 100.712 87.3 94.5201C96.568 88.3281 104.1 83.3481 104.1 83.3961Z" fill="#E0E0E0"/>
<path d="M238.528 93.1859L200.835 118.4L237.961 173.899L275.653 148.685L238.528 93.1859Z" fill="#F5F5F5"/>
<path d="M256.18 146.072L255.752 148.72L237.012 146.02L237.444 143.372L256.18 146.072Z" fill="#E0E0E0"/>
<path d="M246.744 136.628L249.432 137.016L246.452 155.464L243.76 155.076L246.744 136.628Z" fill="#E0E0E0"/>
<path d="M229.484 113.2C229.516 113.248 225.744 115.828 221.056 118.96C216.368 122.092 212.544 124.596 212.512 124.56C212.48 124.524 216.256 121.936 220.94 118.8C225.624 115.664 229.452 113.132 229.484 113.2Z" fill="#E0E0E0"/>
<path d="M243.344 109.7C243.376 109.748 237.1 114.004 229.344 119.2C221.588 124.396 215.24 128.58 215.208 128.532C215.176 128.484 221.452 124.228 229.208 119.028C236.964 113.828 243.3 109.652 243.344 109.7Z" fill="#E0E0E0"/>
<path d="M246.124 113.852C246.156 113.9 239.88 118.156 232.124 123.356C224.368 128.556 218.02 132.732 217.988 132.684C217.956 132.636 224.212 128.4 231.988 123.2C239.764 118 246.1 113.808 246.124 113.852Z" fill="#E0E0E0"/>
<path d="M248.9 118C248.932 118.048 242.652 122.304 234.9 127.504C227.148 132.704 220.796 136.88 220.764 136.832C220.732 136.784 227.008 132.532 234.764 127.328C242.52 122.124 248.872 117.96 248.9 118Z" fill="#E0E0E0"/>
<path d="M251.7 122.164C251.732 122.212 245.456 126.464 237.7 131.664C229.944 136.864 223.596 141.04 223.564 140.996C223.532 140.952 229.808 136.692 237.564 131.492C245.32 126.292 251.648 122.116 251.7 122.164Z" fill="#E0E0E0"/>
<path d="M178.897 51.3358L137.77 29.3391L105.38 89.8975L146.507 111.894L178.897 51.3358Z" fill="#F5F5F5"/>
<path d="M139.468 92.948L136.86 93.84L130.236 75.532L132.848 74.636L139.468 92.948Z" fill="#E0E0E0"/>
<path d="M143.468 79.812L144.42 82.44L126.236 88.668L125.284 86.04L143.468 79.812Z" fill="#E0E0E0"/>
<path d="M156.388 52.7999C156.356 52.8599 152.188 50.6919 147.072 47.9599C141.956 45.2279 137.84 42.9599 137.872 42.8999C137.904 42.8399 142.076 45.0079 147.192 47.7399C152.308 50.4719 156.42 52.7359 156.388 52.7999Z" fill="#E0E0E0"/>
<path d="M166.26 63.692C166.228 63.752 159.324 60.12 150.84 55.584C142.356 51.048 135.508 47.32 135.54 47.26C135.572 47.2 142.472 50.828 150.956 55.368C159.44 59.908 166.292 63.632 166.26 63.692Z" fill="#E0E0E0"/>
<path d="M163.836 68.224C163.804 68.284 156.9 64.656 148.416 60.116C139.932 55.576 133.084 51.852 133.116 51.792C133.148 51.732 140.048 55.364 148.532 59.9C157.016 64.436 163.868 68.164 163.836 68.224Z" fill="#E0E0E0"/>
<path d="M161.412 72.756C161.38 72.816 154.476 69.188 145.992 64.652C137.508 60.116 130.66 56.4 130.692 56.328C130.724 56.256 137.624 59.896 146.108 64.432C154.592 68.968 161.444 72.696 161.412 72.756Z" fill="#E0E0E0"/>
<path d="M158.988 77.2881C158.956 77.3481 152.052 73.7201 143.568 69.1841C135.084 64.6481 128.232 60.9201 128.268 60.8601C128.304 60.8001 135.2 64.4281 143.684 68.9641C152.168 73.5001 159.02 77.2281 158.988 77.2881Z" fill="#E0E0E0"/>
<path opacity="0.2" d="M159.2 0H158.168V17.592H159.2V0Z" fill="black"/>
<path d="M134.592 38.8761H182.776C182.776 38.8761 178.328 17.6001 158.32 17.6001C140.524 17.6001 134.592 38.8761 134.592 38.8761Z" fill="#7879F1"/>
<path d="M159.2 0H158.168V17.592H159.2V0Z" fill="#B692F6"/>
<path d="M265.968 175.932C265.968 175.988 214.268 176.036 150.504 176.036C86.74 176.036 35.032 176 35.032 175.932C35.032 175.864 86.724 175.828 150.504 175.828C214.284 175.828 265.968 175.872 265.968 175.932Z" fill="#42307D"/>
<path d="M47.816 150.88C48.4923 150.929 49.1518 151.113 49.7552 151.423C50.3586 151.732 50.8935 152.159 51.328 152.68C52.1919 153.727 52.8037 154.959 53.116 156.28C53.792 158.808 53.376 161.796 52.656 164.312C49.92 163.332 48.228 160.412 47.456 158.876C46.256 156.452 45.54 151.332 47.804 150.876" fill="#B692F6"/>
<path d="M56.5959 167.38C56.1851 166.743 55.9501 166.008 55.915 165.251C55.8799 164.494 56.0458 163.74 56.3959 163.068C56.757 162.402 57.2472 161.814 57.8378 161.34C58.4284 160.865 59.1077 160.513 59.8359 160.304C60.5039 160.096 61.2799 160.012 61.8599 160.4C62.1214 160.598 62.325 160.862 62.4495 161.165C62.5741 161.468 62.6149 161.8 62.5679 162.124C62.4629 162.774 62.1868 163.384 61.7679 163.892C60.4359 165.696 58.8199 167.196 56.5679 167.38" fill="#B692F6"/>
<path d="M56.9 175.832C56.8407 175.662 56.7991 175.487 56.776 175.308C56.704 174.932 56.608 174.448 56.492 173.868C56.133 172.28 56.033 170.644 56.196 169.024C56.3846 167.396 57.0047 165.848 57.992 164.54C58.2937 164.149 58.6415 163.796 59.028 163.488C59.133 163.405 59.2425 163.327 59.356 163.256C59.3921 163.226 59.4326 163.202 59.476 163.184C58.97 163.616 58.5078 164.097 58.096 164.62C57.1607 165.929 56.5718 167.454 56.384 169.052C56.128 170.916 56.444 172.624 56.628 173.852C56.724 174.464 56.804 174.96 56.848 175.304C56.8795 175.478 56.8969 175.655 56.9 175.832Z" fill="#42307D"/>
<path d="M48.6959 154.732C48.7416 154.795 48.7792 154.864 48.8079 154.936C48.8799 155.096 48.9759 155.296 49.0879 155.548C49.3319 156.08 49.6719 156.852 50.0839 157.808C50.9079 159.724 52.0119 162.388 53.1639 165.356C54.3159 168.324 55.2959 171.032 55.9639 173.004C56.3079 173.988 56.5759 174.788 56.7639 175.344C56.8479 175.608 56.9119 175.82 56.9639 175.984C56.9925 176.057 57.0126 176.134 57.0239 176.212C56.9834 176.144 56.9511 176.072 56.9279 175.996C56.8679 175.836 56.7919 175.628 56.6919 175.368L55.8479 173.048C55.1319 171.092 54.1319 168.388 52.9839 165.424C51.8359 162.46 50.7479 159.788 49.9559 157.86C49.5559 156.912 49.2479 156.14 49.0199 155.576C48.9159 155.32 48.8319 155.116 48.7679 154.952C48.7379 154.881 48.7138 154.807 48.6959 154.732Z" fill="#42307D"/>
<path d="M53.648 170.24C52.8249 168.87 51.6875 167.715 50.3298 166.871C48.9721 166.028 47.4331 165.519 45.84 165.388C45.04 165.332 44.056 165.468 43.696 166.188C43.336 166.908 43.816 167.788 44.368 168.372C45.5408 169.599 47.0506 170.451 48.707 170.821C50.3635 171.191 52.0924 171.063 53.676 170.452" fill="#B692F6"/>
<path d="M47.0719 167.556C47.2415 167.548 47.4115 167.554 47.5799 167.576C47.7771 167.587 47.9735 167.609 48.1679 167.644C48.3959 167.688 48.6639 167.712 48.9439 167.792C49.2569 167.858 49.5655 167.944 49.8679 168.048C50.2183 168.161 50.5616 168.294 50.8959 168.448C51.6649 168.792 52.3922 169.223 53.0639 169.732C53.7278 170.253 54.3292 170.849 54.8559 171.508C55.0834 171.795 55.2931 172.096 55.4839 172.408C55.6564 172.678 55.814 172.957 55.9559 173.244C56.0761 173.478 56.1829 173.718 56.2759 173.964C56.3561 174.146 56.4243 174.333 56.4799 174.524C56.5392 174.684 56.5834 174.848 56.6119 175.016C56.5679 175.016 56.3759 174.328 55.8359 173.304C55.6889 173.029 55.5273 172.762 55.3519 172.504C55.157 172.201 54.946 171.909 54.7199 171.628C53.6737 170.335 52.3395 169.305 50.8239 168.62C50.4759 168.468 50.1439 168.324 49.8199 168.22C49.5225 168.112 49.2194 168.02 48.9119 167.944C47.7919 167.636 47.0679 167.6 47.0719 167.556Z" fill="#42307D"/>
<path d="M228.644 42.1919C227.468 42.4599 226.896 43.8159 226.784 45.0159C226.672 46.2159 226.824 47.4879 226.32 48.5839C225.752 49.8159 224.396 50.7279 224.352 52.0839C224.324 52.9119 224.816 53.6839 224.792 54.5199C224.752 55.8799 223.368 56.9199 223.292 58.2639C223.24 59.2439 223.892 60.1799 223.736 61.1479C223.616 61.8999 223.028 62.4919 222.78 63.2119C222.288 64.6519 223.276 66.2319 224.56 67.0399C225.279 67.4921 226.089 67.7819 226.932 67.8888C227.775 67.9958 228.631 67.9174 229.44 67.6591C230.25 67.4008 230.993 66.9689 231.618 66.3935C232.243 65.8181 232.736 65.1132 233.06 64.3279C233.772 62.5999 233.616 60.6519 233.46 58.7919C232.98 52.9892 232.623 47.1785 232.388 41.3599" fill="#42307D"/>
<path d="M225.228 62.6638C225.47 62.5134 225.659 62.291 225.768 62.0278C225.883 61.7148 225.93 61.3805 225.904 61.0478C225.86 60.6068 225.762 60.1729 225.612 59.7558C225.421 59.2317 225.35 58.6712 225.404 58.1158C225.504 57.4918 225.952 56.9798 226.356 56.4758C226.574 56.2292 226.755 55.9531 226.896 55.6558C227.037 55.3552 227.06 55.0125 226.96 54.6958C226.752 54.0438 226.112 53.5638 225.82 52.8078C225.683 52.4336 225.66 52.0268 225.756 51.6398C225.847 51.277 225.981 50.9264 226.156 50.5958C226.494 50.0004 226.762 49.3683 226.956 48.7118C227.236 47.4438 227.104 46.2318 227.296 45.2358C227.403 44.4381 227.756 43.6939 228.308 43.1078C228.464 42.95 228.642 42.8153 228.836 42.7078C228.903 42.673 228.974 42.6474 229.048 42.6318C228.797 42.7699 228.567 42.9422 228.364 43.1438C227.853 43.7358 227.531 44.4672 227.44 45.2438C227.37 45.7744 227.332 46.3087 227.328 46.8438C227.327 47.4736 227.265 48.1018 227.144 48.7198C226.953 49.3914 226.685 50.0384 226.344 50.6478C226.044 51.2758 225.768 52.0118 226.032 52.6998C226.296 53.3878 226.932 53.8638 227.176 54.5998C227.286 54.9634 227.259 55.3548 227.1 55.6998C226.944 56.027 226.742 56.3301 226.5 56.5998C226.1 57.1038 225.664 57.5838 225.568 58.1438C225.512 58.675 225.575 59.212 225.752 59.7158C225.895 60.1458 225.984 60.5919 226.016 61.0438C226.036 61.3919 225.974 61.7397 225.836 62.0598C225.75 62.2605 225.612 62.4345 225.436 62.5638C225.373 62.6097 225.303 62.6436 225.228 62.6638Z" fill="#455A64"/>
<path d="M222.1 72.1479L218.5 82.5479L203.444 83.3479L200.932 88.9479L216.652 90.5479C217.395 90.8529 218.192 91.004 218.994 90.9924C219.797 90.9807 220.589 90.8064 221.323 90.48C222.056 90.1536 222.716 89.6819 223.262 89.0934C223.808 88.5049 224.229 87.8118 224.5 87.056L228.696 75.344L222.1 72.1479Z" fill="#B78876"/>
<path d="M253.224 170.28C253.224 170.28 242.192 135.232 241.956 134.096C241.744 133.064 245.956 107.844 246.492 101.296L231.584 101.852V102L225.248 102.352L230.92 174H237.78L237.1 150.22C241.332 161.576 247.396 173.152 247.396 173.152L253.224 170.28Z" fill="#B78876"/>
<path d="M237.38 158.752C237.38 158.536 237.296 150.784 237.296 150.784C237.212 151.248 234.668 144.056 234.728 143.62C234.76 143.392 237.38 158.752 237.38 158.752Z" fill="#A36957"/>
<path d="M234.44 140.212C234.405 140.354 234.39 140.501 234.396 140.648C234.374 141.048 234.374 141.448 234.396 141.848C234.396 142.1 234.432 142.372 234.464 142.668C234.496 142.964 234.54 143.276 234.608 143.6C234.75 144.307 234.939 145.005 235.172 145.688C235.668 147.14 236.22 148.408 236.608 149.328C236.792 149.728 236.952 150.108 237.088 150.412C237.137 150.553 237.204 150.688 237.288 150.812C237.267 150.674 237.226 150.539 237.168 150.412C237.076 150.148 236.936 149.768 236.768 149.3C236.416 148.364 235.888 147.084 235.396 145.648C235.163 144.975 234.972 144.288 234.824 143.592C234.752 143.272 234.704 142.964 234.66 142.676C234.616 142.388 234.584 142.116 234.564 141.876C234.516 141.38 234.496 140.98 234.484 140.7C234.492 140.536 234.477 140.372 234.44 140.212Z" fill="#A36957"/>
<path d="M230.792 174.364V173.72L237.82 173.412L237.84 176.072L237.408 176.1C235.476 176.212 227.588 176.54 226.3 176.152C224.856 175.72 230.792 174.364 230.792 174.364Z" fill="#455A64"/>
<path d="M237.932 175.912C237.892 175.914 237.852 175.914 237.812 175.912L237.468 175.936L236.196 175.992C235.124 176.036 233.64 176.076 232.004 176.084C230.368 176.092 228.88 176.064 227.804 176.032L226.536 175.98H226.188H226.068C226.108 175.977 226.148 175.977 226.188 175.98H226.536L227.808 176.004C228.88 176.004 230.364 176.036 232 176.028C233.636 176.02 235.124 175.992 236.196 175.964L237.468 175.932H237.932V175.912Z" fill="#42307D"/>
<path d="M228.5 176.136C228.442 175.927 228.361 175.724 228.26 175.532C228.133 175.355 227.987 175.192 227.824 175.048C228.042 175.126 228.224 175.283 228.332 175.488C228.464 175.677 228.524 175.907 228.5 176.136Z" fill="#42307D"/>
<path d="M230.572 175.084C230.572 175.084 230.456 174.976 230.352 174.816C230.248 174.656 230.184 174.516 230.204 174.504C230.224 174.492 230.32 174.608 230.424 174.768C230.528 174.928 230.592 175.072 230.572 175.084Z" fill="#42307D"/>
<path d="M231.14 174.8C231.14 174.82 231.012 174.744 230.892 174.636C230.772 174.528 230.684 174.428 230.7 174.412C230.716 174.396 230.828 174.468 230.948 174.576C231.068 174.684 231.156 174.764 231.14 174.8Z" fill="#42307D"/>
<path d="M231.496 174.12C231.378 174.163 231.253 174.18 231.128 174.168C231.005 174.184 230.881 174.172 230.764 174.132C230.88 174.089 231.005 174.073 231.128 174.084C231.252 174.067 231.378 174.079 231.496 174.12Z" fill="#42307D"/>
<path d="M231.616 173.656C231.497 173.733 231.358 173.775 231.216 173.776C231.08 173.794 230.942 173.775 230.816 173.72C230.948 173.698 231.082 173.687 231.216 173.688C231.348 173.664 231.482 173.654 231.616 173.656Z" fill="#42307D"/>
<path d="M230.336 174.472C230.187 174.5 230.033 174.5 229.884 174.472C229.722 174.452 229.563 174.418 229.408 174.368C229.312 174.341 229.219 174.304 229.132 174.256C229.079 174.225 229.039 174.175 229.02 174.116C229.013 174.083 229.015 174.048 229.027 174.016C229.039 173.984 229.06 173.956 229.088 173.936C229.199 173.882 229.32 173.854 229.443 173.853C229.566 173.852 229.688 173.878 229.8 173.93C229.912 173.981 230.01 174.057 230.089 174.152C230.168 174.246 230.225 174.357 230.256 174.476C230.264 174.516 230.264 174.556 230.256 174.596C230.211 174.451 230.14 174.316 230.048 174.196C229.942 174.076 229.803 173.99 229.648 173.948C229.471 173.891 229.279 173.905 229.112 173.988C229.044 174.04 229.072 174.124 229.148 174.172C229.23 174.216 229.315 174.252 229.404 174.28C229.554 174.329 229.708 174.368 229.864 174.396C230.164 174.46 230.336 174.46 230.336 174.472Z" fill="#42307D"/>
<path d="M230.22 174.496C230.162 174.403 230.142 174.291 230.164 174.184C230.179 174.066 230.221 173.954 230.288 173.856C230.325 173.789 230.379 173.733 230.444 173.692C230.509 173.652 230.583 173.628 230.66 173.624C230.705 173.635 230.745 173.662 230.771 173.7C230.797 173.739 230.807 173.786 230.8 173.832C230.79 173.904 230.764 173.972 230.724 174.032C230.663 174.131 230.592 174.224 230.512 174.308C230.442 174.388 230.355 174.45 230.256 174.488C230.256 174.488 230.344 174.408 230.468 174.264C230.54 174.182 230.603 174.092 230.656 173.996C230.716 173.9 230.76 173.728 230.656 173.708C230.552 173.688 230.432 173.812 230.364 173.9C230.3 173.987 230.257 174.086 230.236 174.192C230.22 174.292 230.214 174.394 230.22 174.496Z" fill="#42307D"/>
<path d="M237.784 174C237.784 174 237.584 174 237.268 174.02C236.857 174.069 236.467 174.233 236.144 174.492C235.821 174.752 235.577 175.097 235.44 175.488C235.336 175.788 235.328 175.992 235.312 175.988C235.296 175.984 235.312 175.936 235.312 175.848C235.322 175.719 235.346 175.592 235.384 175.468C235.511 175.058 235.756 174.695 236.088 174.424C236.424 174.157 236.832 173.997 237.26 173.964C237.393 173.948 237.527 173.948 237.66 173.964C237.703 173.971 237.744 173.983 237.784 174Z" fill="#42307D"/>
<path d="M234.42 175.352C234.085 175.43 233.74 175.464 233.396 175.452C233.054 175.469 232.71 175.44 232.376 175.364C232.376 175.34 232.832 175.364 233.396 175.364C233.96 175.364 234.416 175.328 234.42 175.352Z" fill="#42307D"/>
<path d="M235.788 175.34C235.788 175.34 235.752 175.436 235.704 175.54C235.656 175.644 235.632 175.74 235.608 175.736C235.584 175.732 235.572 175.628 235.628 175.504C235.684 175.38 235.772 175.32 235.788 175.34Z" fill="#42307D"/>
<path d="M236.304 174.696C236.304 174.696 236.276 174.784 236.204 174.856C236.132 174.928 236.06 174.976 236.04 174.96C236.02 174.944 236.068 174.872 236.14 174.796C236.212 174.72 236.284 174.676 236.304 174.696Z" fill="#42307D"/>
<path d="M237.04 174.4C237.04 174.424 236.944 174.424 236.84 174.46C236.736 174.496 236.664 174.552 236.644 174.536C236.624 174.52 236.684 174.424 236.812 174.38C236.94 174.336 237.048 174.376 237.04 174.4Z" fill="#42307D"/>
<path d="M237.564 174.256C237.564 174.28 237.536 174.316 237.476 174.336C237.416 174.356 237.364 174.36 237.356 174.336C237.348 174.312 237.388 174.276 237.444 174.256C237.5 174.236 237.556 174.236 237.564 174.256Z" fill="#42307D"/>
<path d="M247.256 173.744L246.992 173.156L253.276 170L254.384 172.4L253.984 172.604C252.268 173.496 245.208 177.024 243.872 177.2C242.396 177.412 247.256 173.744 247.256 173.744Z" fill="#455A64"/>
<path d="M254.408 172.228L254.304 172.292L253.996 172.452L252.86 173.028C251.9 173.504 250.564 174.148 249.072 174.828C247.58 175.508 246.212 176.088 245.22 176.5L244.04 176.976L243.72 177.1C243.683 177.117 243.644 177.129 243.604 177.136L243.712 177.084L244.028 176.944L245.196 176.444C246.184 176.02 247.544 175.428 249.036 174.748C250.528 174.068 251.868 173.436 252.836 172.972L253.98 172.424L254.296 172.276L254.408 172.228Z" fill="#42307D"/>
<path d="M245.908 176.296C245.769 176.127 245.612 175.974 245.44 175.84C245.252 175.729 245.052 175.64 244.844 175.576C245.074 175.573 245.299 175.64 245.489 175.769C245.679 175.898 245.825 176.082 245.908 176.296Z" fill="#42307D"/>
<path d="M247.352 174.488C247.352 174.488 247.2 174.44 247.04 174.336C246.88 174.232 246.764 174.132 246.776 174.112C246.788 174.092 246.928 174.16 247.088 174.264C247.248 174.368 247.364 174.468 247.352 174.488Z" fill="#42307D"/>
<path d="M247.744 174C247.744 174.02 247.608 174 247.452 173.952C247.296 173.904 247.18 173.844 247.184 173.82C247.285 173.81 247.387 173.827 247.48 173.868C247.632 173.904 247.752 173.96 247.744 174Z" fill="#42307D"/>
<path d="M247.8 173.232C247.8 173.256 247.668 173.34 247.484 173.428C247.378 173.492 247.259 173.531 247.136 173.544C247.136 173.52 247.268 173.436 247.448 173.348C247.556 173.284 247.676 173.245 247.8 173.232Z" fill="#42307D"/>
<path d="M247.72 172.76C247.72 172.76 247.604 172.92 247.396 173.036C247.278 173.116 247.138 173.158 246.996 173.156C247.111 173.079 247.233 173.013 247.36 172.96C247.556 172.852 247.7 172.74 247.72 172.76Z" fill="#42307D"/>
<path d="M246.9 174.032C246.778 174.116 246.643 174.178 246.5 174.216C246.343 174.262 246.182 174.295 246.02 174.316C245.922 174.328 245.822 174.328 245.724 174.316C245.662 174.311 245.605 174.283 245.564 174.236C245.545 174.207 245.536 174.174 245.536 174.14C245.536 174.106 245.545 174.072 245.564 174.044C245.686 173.897 245.855 173.796 246.042 173.76C246.23 173.723 246.424 173.753 246.592 173.844C246.691 173.896 246.778 173.968 246.848 174.056C246.896 174.12 246.916 174.16 246.912 174.164C246.813 174.054 246.695 173.963 246.564 173.896C246.423 173.83 246.266 173.806 246.112 173.828C246.02 173.837 245.931 173.865 245.85 173.909C245.769 173.953 245.698 174.012 245.64 174.084C245.596 174.16 245.64 174.224 245.748 174.236C245.84 174.244 245.932 174.244 246.024 174.236C246.183 174.22 246.341 174.192 246.496 174.152C246.724 174.088 246.9 174.02 246.9 174.032Z" fill="#42307D"/>
<path d="M246.788 174.1C246.699 174.037 246.636 173.943 246.612 173.836C246.577 173.723 246.569 173.604 246.588 173.488C246.595 173.411 246.621 173.337 246.665 173.274C246.708 173.21 246.767 173.158 246.836 173.124C246.936 173.092 247.168 173.296 247.184 173.372C247.2 173.448 247.068 173.408 247.06 173.472C247.047 173.586 247.02 173.697 246.98 173.804C246.951 173.907 246.896 174.001 246.82 174.076C246.82 174.076 246.868 173.968 246.924 173.788C246.953 173.682 246.973 173.573 246.984 173.464C246.984 173.352 246.984 173.18 246.856 173.208C246.728 173.236 246.692 173.392 246.664 173.504C246.64 173.608 246.64 173.716 246.664 173.82C246.697 173.917 246.739 174.01 246.788 174.1Z" fill="#42307D"/>
<path d="M253.488 170.544C253.488 170.544 253.296 170.612 253.024 170.776C252.668 170.989 252.379 171.296 252.188 171.664C252.003 172.035 251.924 172.451 251.96 172.864C251.984 173.184 252.06 173.368 252.044 173.376C252.018 173.336 251.998 173.293 251.984 173.248C251.944 173.125 251.916 173 251.9 172.872C251.843 172.446 251.917 172.013 252.112 171.63C252.307 171.247 252.614 170.932 252.992 170.728C253.105 170.665 253.224 170.614 253.348 170.576C253.393 170.558 253.44 170.548 253.488 170.544Z" fill="#42307D"/>
<path d="M250.972 173.16C250.408 173.552 249.778 173.84 249.112 174.008C249.112 173.984 249.532 173.824 250.044 173.608C250.556 173.392 250.96 173.14 250.972 173.16Z" fill="#42307D"/>
<path d="M252.216 172.588C252.236 172.588 252.216 172.688 252.216 172.804C252.216 172.92 252.216 173.016 252.216 173.024C252.216 173.032 252.136 172.936 252.136 172.804C252.136 172.672 252.196 172.576 252.216 172.588Z" fill="#42307D"/>
<path d="M252.42 171.788C252.44 171.788 252.42 171.88 252.396 171.976C252.372 172.072 252.312 172.144 252.292 172.136C252.272 172.128 252.292 172.044 252.316 171.948C252.34 171.852 252.396 171.78 252.42 171.788Z" fill="#42307D"/>
<path d="M252.972 171.2C252.972 171.224 252.892 171.26 252.812 171.336C252.732 171.412 252.688 171.492 252.668 171.484C252.648 171.476 252.668 171.364 252.756 171.272C252.844 171.18 252.968 171.2 252.972 171.2Z" fill="#42307D"/>
<path d="M253.392 170.872C253.392 170.872 253.392 170.936 253.344 170.98C253.296 171.024 253.252 171.048 253.236 171.032C253.22 171.016 253.236 170.968 253.284 170.924C253.332 170.88 253.376 170.856 253.392 170.872Z" fill="#42307D"/>
<path d="M245.524 89.456L244.356 75.176L250.356 75.284C250.356 75.284 250.632 73.176 249.748 68.56C249.204 65.728 247.32 63.992 245.204 62.96V62.92L245.02 62.872C243.278 62.09 241.418 61.6047 239.516 61.436L232.136 61.52C232.136 61.52 226.5 60.8 223.392 64.836C222.192 66.384 218.468 76.98 218.468 76.98L227.328 81.244L226.5 75.368C226.5 75.368 226.668 79.628 227.212 80.968C227.512 81.72 228.412 84.056 228.412 84.056L228.296 91.104L245.524 89.456Z" fill="#7879F1"/>
<path d="M241.456 73.1038L240.36 77.7678H250.692L250.012 69.9438L241.456 73.1038Z" fill="#B692F6"/>
<path d="M250.692 77.7681C250.241 77.6849 249.783 77.6394 249.324 77.6321C248.476 77.5841 247.324 77.5401 246.012 77.5481C244.7 77.5561 243.544 77.6121 242.696 77.6761C242.237 77.692 241.781 77.7482 241.332 77.8441C241.79 77.8805 242.25 77.8805 242.708 77.8441C243.552 77.8161 244.708 77.7841 246.012 77.7801C247.316 77.7761 248.472 77.7801 249.32 77.8001C249.777 77.8257 250.236 77.815 250.692 77.7681Z" fill="#42307D"/>
<path d="M241.008 69.908C240.959 70.306 240.948 70.7079 240.976 71.108C240.976 71.84 241.008 72.848 241.052 73.964C241.096 75.08 241.148 76.092 241.196 76.82C241.198 77.2233 241.241 77.6253 241.324 78.02C241.373 77.6219 241.384 77.2201 241.356 76.82C241.356 76.088 241.324 75.076 241.28 73.96C241.236 72.844 241.184 71.836 241.136 71.104C241.134 70.702 241.091 70.3012 241.008 69.908Z" fill="#42307D"/>
<g opacity="0.3">
<path d="M231.608 73.948C231.608 73.948 233.904 90.976 240.36 90.524C240.36 90.524 243.268 90.492 244.2 88.56V87.8L231.608 73.948Z" fill="black"/>
</g>
<g opacity="0.3">
<path d="M241.008 70.9119L239.772 79.2599L240.572 80.7239L241.892 77.8599L241.332 77.8439L241.008 70.9119Z" fill="black"/>
</g>
<path d="M228.376 84.064C228.299 83.9394 228.24 83.8048 228.2 83.664C228.1 83.404 227.968 83.024 227.8 82.548C227.399 81.3077 227.069 80.0457 226.812 78.768C226.555 77.4896 226.392 76.1942 226.324 74.892C226.3 74.392 226.292 73.988 226.3 73.692C226.29 73.5474 226.299 73.4021 226.328 73.26C226.36 73.26 226.384 73.876 226.468 74.86C226.581 76.1504 226.763 77.4336 227.016 78.704C227.312 80.192 227.668 81.524 227.94 82.48C228.068 82.924 228.176 83.304 228.264 83.616C228.319 83.7604 228.356 83.9108 228.376 84.064Z" fill="#42307D"/>
<path d="M230.984 88.9559C230.928 88.9559 230.768 88.6079 230.628 88.1559C230.508 87.8789 230.454 87.5774 230.472 87.2759C230.648 87.5203 230.77 87.8001 230.828 88.0959C230.943 88.3675 230.996 88.6612 230.984 88.9559Z" fill="#42307D"/>
<path d="M231.876 88.892C231.574 88.0896 231.561 87.2068 231.84 86.396C231.871 86.8114 231.871 87.2286 231.84 87.644C231.884 88.0585 231.896 88.4757 231.876 88.892Z" fill="#42307D"/>
<path d="M227.508 81.4401C227.48 81.4881 225.42 80.5121 222.904 79.2561C220.388 78.0001 218.368 76.9361 218.392 76.8841C218.416 76.8321 220.48 77.8121 222.996 79.0681C225.512 80.3241 227.532 81.3881 227.508 81.4401Z" fill="#42307D"/>
<path d="M231.14 62.8999C231.184 60.8759 231.196 58.7479 231.196 58.7479C231.196 58.7479 228.6 58.2479 228.148 54.8319C227.716 51.5759 228.924 43.9319 228.924 43.9319C232.716 42.4999 236.656 43.7999 239.252 46.8719L238.608 63.2999C238.532 65.2079 236.832 66.6639 234.792 66.5679C232.728 66.4679 231.096 64.8279 231.14 62.8999Z" fill="#B78876"/>
<path d="M228.724 50.0399C228.72 50.1521 228.76 50.2613 228.834 50.3453C228.909 50.4293 229.012 50.4818 229.124 50.4919C229.181 50.4974 229.238 50.4913 229.292 50.4739C229.347 50.4565 229.397 50.4282 229.44 50.3908C229.483 50.3534 229.518 50.3076 229.543 50.2562C229.567 50.2048 229.582 50.1489 229.584 50.0919C229.587 49.9802 229.548 49.8714 229.473 49.7881C229.399 49.7047 229.295 49.6531 229.184 49.6439C229.127 49.6353 229.069 49.6391 229.013 49.655C228.958 49.6709 228.907 49.6987 228.863 49.7363C228.819 49.7739 228.784 49.8205 228.76 49.8729C228.736 49.9253 228.724 49.9823 228.724 50.0399Z" fill="#42307D"/>
<path d="M228.564 49.4681C228.616 49.5241 228.964 49.2881 229.424 49.3041C229.884 49.3201 230.224 49.5601 230.28 49.5041C230.336 49.4481 230.256 49.3761 230.108 49.2601C229.908 49.115 229.667 49.0353 229.42 49.0321C229.176 49.0228 228.936 49.093 228.736 49.2321C228.588 49.3401 228.536 49.4401 228.564 49.4681Z" fill="#42307D"/>
<path d="M233.488 50.3361C233.484 50.4485 233.523 50.5582 233.597 50.6425C233.672 50.7267 233.776 50.7789 233.888 50.7881C233.945 50.7968 234.004 50.7929 234.06 50.7767C234.115 50.7606 234.167 50.7325 234.211 50.6944C234.254 50.6564 234.289 50.6093 234.313 50.5564C234.337 50.5035 234.349 50.4461 234.348 50.3881C234.352 50.2761 234.313 50.1668 234.239 50.0832C234.164 49.9996 234.06 49.9483 233.948 49.9401C233.891 49.9314 233.833 49.9352 233.777 49.9511C233.722 49.9671 233.671 49.9948 233.627 50.0324C233.583 50.07 233.548 50.1166 233.524 50.169C233.5 50.2214 233.488 50.2784 233.488 50.3361Z" fill="#42307D"/>
<path d="M233.456 49.7639C233.508 49.8239 233.856 49.5879 234.316 49.5999C234.776 49.6119 235.116 49.8559 235.176 49.7999C235.236 49.7439 235.148 49.6719 235 49.5599C234.803 49.411 234.563 49.3296 234.316 49.3279C234.071 49.3206 233.831 49.3906 233.628 49.5279C233.484 49.6359 233.432 49.7359 233.456 49.7639Z" fill="#42307D"/>
<path d="M231.664 53.1999C231.418 53.1155 231.163 53.0631 230.904 53.0439C230.784 53.0439 230.672 52.9999 230.656 52.9199C230.646 52.7949 230.677 52.67 230.744 52.5639L231.12 51.6639C231.47 50.899 231.757 50.1071 231.98 49.2959C231.57 50.0309 231.22 50.7973 230.932 51.5879C230.808 51.9039 230.684 52.2079 230.568 52.4959C230.49 52.6388 230.465 52.8043 230.496 52.9639C230.512 53.0073 230.537 53.0464 230.57 53.0783C230.604 53.1102 230.644 53.1341 230.688 53.1479C230.754 53.1671 230.823 53.1779 230.892 53.1799C231.147 53.2192 231.407 53.2259 231.664 53.1999Z" fill="#42307D"/>
<path d="M231.196 58.7479C232.796 58.812 234.383 58.4313 235.78 57.6479C235.78 57.6479 234.616 59.956 231.22 59.552L231.196 58.7479Z" fill="#A36957"/>
<path d="M234.96 48.4001C234.864 48.5481 234.504 48.4841 234.104 48.4001C233.704 48.3161 233.352 48.2481 233.304 48.0761C233.256 47.9041 233.676 47.6761 234.212 47.7841C234.748 47.8921 235.056 48.2721 234.96 48.4001Z" fill="#42307D"/>
<path d="M230.292 47.7199C230.256 47.8918 229.872 47.9558 229.432 47.9758C228.992 47.9958 228.604 47.9758 228.552 47.7998C228.5 47.6238 228.872 47.3758 229.404 47.3518C229.936 47.3278 230.328 47.5558 230.292 47.7199Z" fill="#42307D"/>
<path d="M231.672 54.324C231.621 54.312 231.568 54.3173 231.521 54.3391C231.474 54.3608 231.436 54.3978 231.412 54.444C231.389 54.4848 231.377 54.5308 231.378 54.5775C231.378 54.6242 231.391 54.67 231.415 54.7103C231.438 54.7506 231.472 54.784 231.513 54.8072C231.553 54.8304 231.599 54.8426 231.646 54.8426C231.693 54.8426 231.739 54.8304 231.779 54.8072C231.82 54.784 231.853 54.7506 231.877 54.7103C231.901 54.67 231.913 54.6242 231.914 54.5775C231.914 54.5308 231.903 54.4848 231.88 54.444C231.851 54.3903 231.805 54.3479 231.749 54.3239C231.693 54.2999 231.631 54.2957 231.572 54.312" fill="#A36957"/>
<path d="M231.78 54.3719C231.78 54.3519 231.704 54.2359 231.5 54.2799C231.439 54.2958 231.383 54.3275 231.338 54.3717C231.293 54.4159 231.261 54.4712 231.244 54.5319C231.222 54.6085 231.224 54.6897 231.249 54.7653C231.274 54.8408 231.321 54.9072 231.384 54.9559C231.451 55.0015 231.529 55.0259 231.61 55.0259C231.691 55.0259 231.769 55.0015 231.836 54.9559C231.889 54.9201 231.931 54.8698 231.956 54.8109C231.982 54.7521 231.99 54.6872 231.98 54.6239C231.94 54.4119 231.784 54.3799 231.776 54.4079C231.768 54.4359 231.832 54.5079 231.82 54.6319C231.817 54.6625 231.807 54.6921 231.79 54.7179C231.774 54.7437 231.751 54.765 231.724 54.7799C231.693 54.7978 231.658 54.8072 231.622 54.8072C231.586 54.8072 231.551 54.7978 231.52 54.7799C231.492 54.7562 231.471 54.7257 231.458 54.6914C231.446 54.657 231.442 54.62 231.448 54.5839C231.453 54.5523 231.465 54.5223 231.484 54.4965C231.502 54.4707 231.527 54.4499 231.556 54.4359C231.668 54.3679 231.768 54.3999 231.78 54.3719Z" fill="#42307D"/>
<path d="M237.7 50.884C237.3 51.82 236.308 52.544 236.444 53.556C236.532 54.208 236.952 54.816 236.872 55.472C236.768 56.272 235.916 56.864 235.792 57.684C235.644 58.688 236.624 59.468 237.012 60.404C237.584 61.772 236.856 63.308 236.836 64.804C236.86 65.9398 237.294 67.0285 238.059 67.8684C238.824 68.7084 239.867 69.2425 240.996 69.372C241.908 69.448 242.936 69.172 243.396 68.388C243.796 67.74 243.708 66.916 243.94 66.2C244.292 65.128 245.312 64.344 245.54 63.24C245.94 61.24 243.5 59.56 243.66 57.512C243.728 56.636 244.268 55.876 244.496 55.028C244.641 54.4707 244.652 53.8869 244.529 53.3245C244.405 52.762 244.15 52.2369 243.784 51.792C243.18 51.076 242.308 50.592 241.784 49.824C241.204 48.94 241.184 47.824 240.984 46.78C240.715 45.511 240.129 44.3308 239.281 43.3498C238.433 42.3688 237.349 41.6189 236.132 41.1702C234.915 40.7215 233.604 40.5887 232.322 40.7842C231.04 40.9796 229.828 41.497 228.8 42.288C228.8 42.288 228.22 44.924 230.928 45.368C233.636 45.812 234.888 45.3 235.192 46.384C235.12 46.8305 235.155 47.2877 235.295 47.7181C235.434 48.1484 235.673 48.5397 235.992 48.86C237.096 50.052 238.148 49.796 237.7 50.884Z" fill="#42307D"/>
<path d="M242 69.1679C241.917 69.1708 241.833 69.1627 241.752 69.1439C241.517 69.1023 241.287 69.0394 241.064 68.9559C240.238 68.6392 239.514 68.1042 238.968 67.4079C238.585 66.9274 238.285 66.3867 238.08 65.8079C237.846 65.1487 237.723 64.4553 237.716 63.7559C237.708 62.985 237.805 62.2166 238.004 61.4719C238.113 61.0786 238.247 60.6925 238.404 60.3159C238.569 59.9411 238.715 59.5579 238.84 59.1679C238.95 58.7836 238.95 58.3762 238.84 57.9919C238.723 57.6136 238.572 57.2468 238.388 56.8959C238.203 56.548 238.046 56.1854 237.92 55.8119C237.797 55.4422 237.768 55.0476 237.836 54.6639C237.996 53.9119 238.452 53.3519 238.724 52.7799C238.983 52.2504 239.107 51.6649 239.084 51.0759C239.048 50.2139 238.735 49.3865 238.192 48.7159C237.982 48.481 237.756 48.2605 237.516 48.0559C237.796 48.2135 238.047 48.4193 238.256 48.6639C238.839 49.3335 239.182 50.1778 239.232 51.0639C239.265 51.6786 239.144 52.2918 238.88 52.8479C238.604 53.4399 238.16 54.0039 238.024 54.6919C237.888 55.3799 238.212 56.1039 238.568 56.7999C238.762 57.1608 238.92 57.54 239.04 57.9319C239.158 58.3504 239.158 58.7934 239.04 59.2119C238.907 59.6154 238.753 60.012 238.58 60.3999C238.423 60.7683 238.289 61.1464 238.18 61.5319C237.981 62.2578 237.883 63.0074 237.888 63.7599C237.876 65.0415 238.289 66.2909 239.064 67.3119C239.582 67.9995 240.272 68.5389 241.064 68.8759C241.66 69.1079 242.004 69.1439 242 69.1679Z" fill="#455A64"/>
<path d="M241.6 48.9839C241.405 49.0344 241.205 49.0639 241.004 49.0719C240.455 49.1306 239.901 49.1158 239.356 49.0279C238.943 48.9667 238.546 48.8238 238.189 48.6074C237.832 48.3911 237.521 48.1057 237.276 47.7679C237.047 47.3406 236.865 46.89 236.732 46.4239C236.561 45.9583 236.24 45.5629 235.82 45.2999C234.944 44.7439 233.916 44.6759 233.02 44.5679C232.194 44.5267 231.391 44.2762 230.688 43.8399C230.217 43.5279 229.877 43.0539 229.732 42.5079C229.697 42.3599 229.688 42.2071 229.704 42.0559C229.704 41.9519 229.728 41.8999 229.736 41.8999C229.741 42.098 229.766 42.2951 229.812 42.4879C229.978 42.9985 230.317 43.4346 230.772 43.7199C231.462 44.1226 232.241 44.348 233.04 44.3759C233.936 44.4799 235 44.5319 235.936 45.1239C236.394 45.4115 236.743 45.8437 236.928 46.3519C237.053 46.8062 237.226 47.246 237.444 47.6639C237.91 48.303 238.608 48.7339 239.388 48.8639C239.915 48.9619 240.452 48.9982 240.988 48.9719C241.192 48.9604 241.397 48.9644 241.6 48.9839Z" fill="#455A64"/>
<path d="M240.608 45.7281C240.457 45.7785 240.299 45.8015 240.14 45.7961C239.394 45.8011 238.676 45.5139 238.14 44.9961C237.895 44.7507 237.686 44.4719 237.52 44.1681C237.16 43.5601 236.812 42.8121 236.064 42.5001C235.343 42.2583 234.576 42.1911 233.824 42.3041C233.19 42.3931 232.546 42.3931 231.912 42.3041C231.471 42.2428 231.055 42.06 230.712 41.7761C230.623 41.6987 230.545 41.6099 230.48 41.5121C230.432 41.4427 230.412 41.4067 230.42 41.4041C230.42 41.4041 230.532 41.5321 230.764 41.7121C231.106 41.9553 231.503 42.1093 231.92 42.1601C232.543 42.2303 233.172 42.2195 233.792 42.1281C234.576 41.9999 235.381 42.0687 236.132 42.3281C236.518 42.5016 236.849 42.7785 237.088 43.1281C237.299 43.4399 237.492 43.763 237.668 44.0961C237.826 44.3868 238.021 44.6557 238.248 44.8961C238.449 45.0993 238.679 45.2706 238.932 45.4041C239.304 45.5983 239.713 45.7115 240.132 45.7361C240.44 45.7321 240.604 45.7081 240.608 45.7281Z" fill="#455A64"/>
<path d="M243.192 68.3038C243.172 68.3038 243.3 68.0398 243.448 67.5438C243.648 66.8475 243.737 66.1239 243.712 65.3998C243.683 64.328 243.39 63.2798 242.86 62.3478C242.568 61.8238 242.124 61.3558 241.76 60.7798C241.567 60.4864 241.432 60.1594 241.36 59.8158C241.297 59.4542 241.327 59.0825 241.448 58.7358C241.672 58.0438 242.072 57.4638 242.16 56.8278C242.248 56.1918 241.944 55.6278 241.64 55.0958C241.483 54.837 241.34 54.5699 241.212 54.2958C241.095 54.03 241.018 53.7483 240.984 53.4598C240.946 52.9516 240.962 52.4407 241.032 51.9358C241.16 51.2221 241.094 50.4871 240.84 49.8078C240.727 49.5699 240.566 49.3575 240.368 49.1838C240.368 49.1838 240.388 49.1838 240.416 49.2078C240.463 49.2314 240.507 49.2624 240.544 49.2998C240.7 49.4302 240.827 49.5925 240.916 49.7758C241.205 50.461 241.295 51.2138 241.176 51.9478C241.121 52.4433 241.114 52.943 241.156 53.4398C241.255 53.9987 241.476 54.5287 241.804 54.9918C241.975 55.2622 242.12 55.5473 242.24 55.8438C242.366 56.1639 242.407 56.5111 242.36 56.8518C242.264 57.5518 241.852 58.1438 241.644 58.7958C241.535 59.1104 241.506 59.4473 241.56 59.7758C241.63 60.0936 241.757 60.396 241.936 60.6678C242.276 61.2238 242.736 61.6998 243.028 62.2478C243.564 63.2112 243.85 64.2935 243.86 65.3958C243.873 66.1337 243.759 66.8683 243.524 67.5678C243.46 67.7572 243.382 67.9416 243.292 68.1198C243.268 68.1856 243.234 68.2476 243.192 68.3038Z" fill="#455A64"/>
<path d="M226.9 142.836C226.9 142.836 224.204 117.3 224.048 107.864C223.892 98.4279 228.292 89.1159 228.292 89.1159L245.524 88.3999C245.524 88.3999 248.932 97.9719 248.992 102C249.112 109.816 246.916 117.532 247.168 123.732L247.744 142.852" fill="#42307D"/>
<path d="M248.324 111.44C248.234 111.518 248.139 111.59 248.04 111.656L247.884 111.764L247.716 111.928C247.568 112.056 247.434 112.2 247.316 112.356C246.76 113.036 246.356 114.256 245.968 115.772C245.77 116.613 245.477 117.429 245.096 118.204C244.98 118.416 244.846 118.618 244.696 118.808C244.624 118.904 244.556 119.008 244.472 119.1L244.208 119.364C243.83 119.717 243.391 119.999 242.912 120.196C241.948 120.62 240.856 120.82 239.864 121.32C238.848 121.867 238.062 122.761 237.652 123.84C237.164 124.924 236.852 126.06 236.452 127.124C236.052 128.188 235.512 129.204 234.652 129.852C233.83 130.423 232.853 130.732 231.852 130.736C230.924 130.792 230.064 130.764 229.292 130.88C228.597 130.952 227.933 131.203 227.364 131.608C226.948 131.933 226.637 132.372 226.468 132.872C226.361 133.187 226.337 133.525 226.4 133.852C226.448 134.076 226.508 134.184 226.496 134.188C226.432 134.088 226.386 133.976 226.36 133.86C226.276 133.526 226.287 133.176 226.392 132.848C226.551 132.323 226.865 131.859 227.292 131.516C227.875 131.076 228.566 130.8 229.292 130.716C230.092 130.588 230.944 130.604 231.86 130.544C232.832 130.538 233.779 130.236 234.576 129.68C235.384 128.974 235.981 128.057 236.3 127.032C236.7 125.98 236.992 124.84 237.5 123.736C237.931 122.613 238.751 121.683 239.812 121.116C240.844 120.604 241.936 120.408 242.876 120C243.336 119.809 243.759 119.539 244.124 119.2L244.376 118.948C244.456 118.86 244.524 118.76 244.596 118.668C244.737 118.486 244.862 118.292 244.968 118.088C245.351 117.323 245.648 116.518 245.852 115.688C246.252 114.176 246.688 112.94 247.276 112.256C247.393 112.1 247.527 111.958 247.676 111.832C247.74 111.776 247.796 111.72 247.852 111.676L248.016 111.572C248.116 111.522 248.219 111.478 248.324 111.44Z" fill="#FAFAFA"/>
<path d="M248.428 99.624C248.446 99.7364 248.454 99.8502 248.452 99.964C248.451 100.294 248.41 100.623 248.332 100.944C247.987 102.114 247.311 103.159 246.384 103.952C245.772 104.514 245.102 105.009 244.384 105.428C243.612 105.884 242.76 106.32 241.884 106.816C240.964 107.309 240.107 107.912 239.332 108.612C238.537 109.401 237.882 110.319 237.396 111.328C236.905 112.35 236.345 113.338 235.72 114.284C235.402 114.725 235.034 115.128 234.624 115.484C234.219 115.828 233.775 116.122 233.3 116.36C232.441 116.782 231.545 117.126 230.624 117.388C229.768 117.652 228.968 117.888 228.272 118.188C227.64 118.439 227.039 118.761 226.48 119.148C226.059 119.44 225.681 119.788 225.356 120.184C225.084 120.527 224.857 120.903 224.68 121.304C224.708 121.193 224.746 121.085 224.792 120.98C224.923 120.678 225.091 120.393 225.292 120.132C225.611 119.72 225.988 119.356 226.412 119.052C226.974 118.652 227.579 118.316 228.216 118.052C228.987 117.738 229.773 117.464 230.572 117.232C231.48 116.964 232.363 116.619 233.212 116.2C233.662 115.965 234.085 115.681 234.472 115.352C234.867 115.001 235.221 114.606 235.528 114.176C236.145 113.235 236.699 112.254 237.188 111.24C237.69 110.209 238.366 109.272 239.188 108.472C239.977 107.762 240.85 107.152 241.788 106.656C242.668 106.164 243.52 105.736 244.292 105.284C245.008 104.879 245.678 104.399 246.292 103.852C247.211 103.083 247.893 102.069 248.26 100.928C248.363 100.501 248.419 100.063 248.428 99.624Z" fill="#FAFAFA"/>
<path d="M224.136 109.2C224.12 109.175 224.108 109.148 224.1 109.12C224.07 109.043 224.045 108.964 224.024 108.884C223.955 108.566 223.969 108.235 224.064 107.924C224.288 107.124 225.172 106.096 226.596 105.588C227.308 105.344 228.112 105.188 228.952 104.98C229.65 104.864 230.309 104.584 230.876 104.161C231.444 103.739 231.901 103.187 232.212 102.552C232.439 102.086 232.639 101.606 232.808 101.116C233.121 100.051 233.546 99.0228 234.076 98.0479C234.684 97.0898 235.606 96.3728 236.684 96.02C237.665 95.7017 238.666 95.4478 239.68 95.2599C240.585 95.0862 241.461 94.7873 242.284 94.3719C242.981 93.9739 243.582 93.4277 244.044 92.7719C244.727 91.8252 245.117 90.6984 245.164 89.532C245.166 89.1039 245.138 88.6761 245.08 88.252C245.201 88.6675 245.256 89.0994 245.244 89.532C245.228 90.7237 244.852 91.8827 244.164 92.856C243.696 93.5333 243.082 94.0977 242.368 94.508C241.535 94.9388 240.644 95.2499 239.724 95.432C238.719 95.6227 237.728 95.8779 236.756 96.196C235.721 96.5351 234.835 97.2238 234.252 98.144C233.73 99.1055 233.311 100.119 233 101.168C232.827 101.667 232.623 102.155 232.388 102.628C232.151 103.083 231.849 103.5 231.492 103.868C230.79 104.509 229.925 104.944 228.992 105.128C228.144 105.344 227.344 105.48 226.644 105.712C225.256 106.184 224.376 107.156 224.14 107.932C224.043 108.231 224.017 108.549 224.064 108.86C224.098 108.971 224.122 109.085 224.136 109.2Z" fill="#FAFAFA"/>
<path d="M246.948 130.8C246.964 130.883 246.974 130.967 246.976 131.052C246.984 131.294 246.958 131.537 246.9 131.772C246.649 132.639 246.117 133.399 245.388 133.932C244.901 134.32 244.363 134.638 243.788 134.876C243.176 135.136 242.5 135.344 241.788 135.564C241.049 135.78 240.326 136.047 239.624 136.364C238.895 136.712 238.241 137.2 237.7 137.8C237.116 138.408 236.612 139.076 236.052 139.668C235.516 140.241 234.894 140.727 234.208 141.108C233.04 141.745 231.734 142.086 230.404 142.1C229.513 142.11 228.627 141.962 227.788 141.664C227.56 141.586 227.338 141.491 227.124 141.38C227.046 141.348 226.972 141.306 226.904 141.256C226.985 141.278 227.063 141.306 227.14 141.34C227.36 141.434 227.584 141.517 227.812 141.588C228.65 141.851 229.526 141.974 230.404 141.952C231.705 141.918 232.978 141.571 234.116 140.94C234.781 140.564 235.384 140.087 235.904 139.528C236.452 138.944 236.952 138.28 237.548 137.656C238.121 137.034 238.812 136.531 239.58 136.176C240.292 135.858 241.026 135.591 241.776 135.376C242.48 135.16 243.152 134.976 243.776 134.712C244.334 134.484 244.859 134.181 245.336 133.812C246.053 133.306 246.587 132.582 246.86 131.748C246.919 131.436 246.948 131.118 246.948 130.8Z" fill="#FAFAFA"/>
<path d="M244.984 77.784L241.648 77.864C241.52 78.5366 241.264 79.1787 240.896 79.756C238.096 74.916 235.948 68.436 235.412 65.832C235.492 65.572 235.584 65.284 235.7 64.964C235.783 64.4779 235.768 63.9801 235.656 63.5C235.56 62.92 235.4 62.14 235.352 61.78C235.204 60.676 235.024 60.504 234.64 60.628C234.12 60.8 234.856 63.72 234.428 63.784C234.196 63.816 233.916 62.816 233.836 61.996C233.756 61.176 233.38 58.648 233.112 58.48C232.712 58.232 232.364 58.624 232.468 59.44C232.572 60.256 232.696 62.736 232.264 62.772C231.832 62.808 231.464 58.616 231.464 58.616C231.464 58.616 231.532 57.704 231.028 57.724C230.124 57.764 230.832 62.18 230.908 62.6C230.964 62.888 230.508 62.944 230.452 62.628C230.396 62.312 230.188 58.44 229.252 58.472C228.54 58.472 229.8 62.108 229.4 62.948C229 63.788 228.728 60.1 228.052 60.148C227.8 60.168 227.612 60.216 228.076 62.3C228.52 63.9558 229.055 65.5862 229.676 67.184C230.748 72.964 235.452 91.456 242.824 88.072C246.952 86.176 248.624 77.784 248.624 77.784H244.984Z" fill="#B78876"/>
<path d="M230.764 62.88C230.795 62.888 230.828 62.888 230.86 62.88C230.908 62.8653 230.95 62.8338 230.977 62.7913C231.004 62.7488 231.015 62.698 231.008 62.648C231.008 62.4 230.96 62.04 230.904 61.572C230.81 61.008 230.749 60.439 230.72 59.868C230.72 59.532 230.72 59.172 230.74 58.792C230.746 58.5988 230.766 58.4063 230.8 58.216C230.832 58.036 230.952 57.816 231.092 57.852H231.116C231.256 57.852 231.368 57.956 231.412 58.124C231.461 58.2981 231.48 58.4794 231.468 58.66C231.55 59.7802 231.693 60.8952 231.896 62C231.928 62.148 231.96 62.3 232.008 62.452C232.029 62.5298 232.056 62.606 232.088 62.68C232.108 62.7212 232.131 62.7613 232.156 62.8C232.174 62.8292 232.198 62.8539 232.228 62.8719C232.257 62.89 232.29 62.901 232.324 62.904C232.382 62.8976 232.437 62.874 232.482 62.8363C232.527 62.7985 232.56 62.7483 232.576 62.692C232.61 62.6138 232.636 62.5319 232.652 62.448C232.683 62.2868 232.704 62.1238 232.716 61.96C232.752 61.2935 232.743 60.6252 232.688 59.96C232.637 59.6279 232.624 59.2911 232.648 58.956C232.663 58.8113 232.733 58.6778 232.844 58.584C232.87 58.5688 232.898 58.5591 232.928 58.5556C232.957 58.5522 232.988 58.5551 233.016 58.564C233.05 58.5722 233.082 58.5857 233.112 58.604C233.132 58.6192 233.148 58.6401 233.156 58.664C233.282 58.9884 233.374 59.3248 233.432 59.668C233.504 60.02 233.564 60.384 233.62 60.748C233.676 61.112 233.728 61.48 233.772 61.852C233.806 62.2359 233.868 62.6168 233.956 62.992C234.003 63.1838 234.063 63.3723 234.136 63.556C234.177 63.6589 234.233 63.7547 234.304 63.84C234.331 63.8755 234.367 63.9026 234.409 63.9181C234.451 63.9337 234.496 63.9371 234.54 63.928C234.58 63.9146 234.617 63.8911 234.646 63.8595C234.674 63.828 234.694 63.7896 234.704 63.748C234.751 63.5436 234.766 63.333 234.748 63.124C234.748 62.924 234.724 62.724 234.704 62.532C234.676 62.196 234.644 61.864 234.632 61.536C234.622 61.3748 234.622 61.2132 234.632 61.052C234.64 60.9807 234.657 60.9107 234.684 60.844C234.692 60.822 234.704 60.8017 234.72 60.784H234.772C235.036 60.676 235.124 61.044 235.196 61.34C235.268 61.636 235.296 61.972 235.36 62.288C235.464 62.916 235.6 63.544 235.668 64.144C235.714 64.4313 235.703 64.7249 235.636 65.008C235.54 65.296 235.444 65.58 235.352 65.864V65.892V65.916C235.821 67.8811 236.418 69.8133 237.14 71.7C237.772 73.408 238.408 74.9 238.964 76.1C239.52 77.3 240.024 78.24 240.368 78.872L240.768 79.588C240.811 79.6733 240.864 79.7538 240.924 79.828C240.89 79.7392 240.849 79.6535 240.8 79.572L240.4 78.84C240.072 78.196 239.6 77.24 239.056 76.04C238.512 74.84 237.896 73.348 237.28 71.64C236.575 69.7562 235.99 67.8296 235.528 65.872V65.928C235.62 65.648 235.712 65.364 235.808 65.08C235.891 64.7683 235.908 64.4425 235.856 64.124C235.784 63.496 235.652 62.888 235.548 62.256C235.488 61.944 235.448 61.624 235.384 61.296C235.38 61.1275 235.352 60.9605 235.3 60.8C235.254 60.7024 235.177 60.6234 235.08 60.576C234.977 60.5424 234.867 60.5424 234.764 60.576H234.7C234.666 60.5869 234.635 60.6046 234.608 60.628C234.564 60.6657 234.529 60.7138 234.508 60.768C234.471 60.8546 234.448 60.9464 234.44 61.04C234.428 61.2131 234.428 61.3869 234.44 61.56C234.44 61.896 234.488 62.232 234.516 62.568C234.516 62.764 234.548 62.968 234.556 63.148C234.572 63.3284 234.562 63.5102 234.528 63.688C234.528 63.728 234.496 63.72 234.528 63.74L234.504 63.716C234.453 63.6507 234.413 63.5778 234.384 63.5C234.314 63.327 234.257 63.1492 234.212 62.968C234.124 62.6037 234.064 62.2333 234.032 61.86C233.989 61.484 233.937 61.112 233.876 60.744C233.82 60.376 233.756 60.016 233.684 59.656C233.624 59.2896 233.522 58.9313 233.38 58.588C233.353 58.5307 233.31 58.4822 233.256 58.448C233.209 58.421 233.16 58.3995 233.108 58.384C233.051 58.369 232.992 58.3656 232.933 58.3738C232.875 58.3821 232.819 58.4018 232.768 58.432C232.685 58.4936 232.617 58.5716 232.566 58.6611C232.515 58.7506 232.483 58.8496 232.472 58.952C232.446 59.1338 232.446 59.3183 232.472 59.5C232.472 59.672 232.512 59.84 232.524 60.008C232.58 60.6625 232.592 61.3199 232.56 61.976C232.551 62.1319 232.531 62.2869 232.5 62.44C232.488 62.5115 232.468 62.5814 232.44 62.648C232.43 62.6744 232.415 62.6987 232.396 62.72C232.396 62.756 232.368 62.72 232.372 62.768C232.372 62.728 232.372 62.768 232.372 62.716C232.354 62.689 232.338 62.661 232.324 62.632C232.296 62.568 232.272 62.496 232.248 62.428C232.204 62.284 232.172 62.136 232.14 61.992C231.931 60.8967 231.78 59.7912 231.688 58.68C231.7 58.4789 231.677 58.2772 231.62 58.084C231.594 57.9832 231.54 57.8918 231.464 57.82C231.425 57.7822 231.378 57.7527 231.328 57.7335C231.277 57.7142 231.222 57.7056 231.168 57.708H231.192C231.124 57.6981 231.055 57.7084 230.993 57.7376C230.931 57.7667 230.879 57.8135 230.844 57.872C230.784 57.9674 230.744 58.0733 230.724 58.184C230.69 58.3823 230.672 58.5829 230.668 58.784C230.668 59.184 230.668 59.532 230.668 59.872C230.706 60.4467 230.779 61.0184 230.888 61.584C230.956 62.048 231.008 62.408 231.032 62.652C231.04 62.6947 231.032 62.7388 231.011 62.7767C230.99 62.8146 230.956 62.8441 230.916 62.86C230.796 62.872 230.76 62.876 230.764 62.88Z" fill="#A36957"/>
<path d="M204.712 83.292C203.931 83.2753 203.152 83.3655 202.396 83.56C200.328 84.104 196.764 86.264 196.616 88.932H199.208C199.208 88.932 197.756 92.02 198.18 91.732C199.288 90.988 201.488 88.752 201.488 88.752L204.712 83.292Z" fill="#B78876"/>
<path d="M240.044 36.8C239.984 36.8 239.752 34.664 239.52 32C239.288 29.336 239.144 27.2 239.2 27.2C239.256 27.2 239.492 29.336 239.724 32C239.956 34.664 240.1 36.8 240.044 36.8Z" fill="#42307D"/>
<path d="M251.408 27.3638C251.452 27.3958 249.704 29.9358 247.5 33.0358C245.296 36.1358 243.468 38.6358 243.42 38.5878C243.372 38.5398 245.124 36.0158 247.328 32.9158C249.532 29.8158 251.36 27.3318 251.408 27.3638Z" fill="#42307D"/>
<path d="M256.128 38.8759C256.128 38.9319 254.096 39.3999 251.568 39.9199C249.04 40.4399 246.976 40.8159 246.964 40.7599C246.952 40.7039 248.992 40.2359 251.524 39.7159C254.056 39.1959 256.1 38.8199 256.128 38.8759Z" fill="#42307D"/>
<path d="M120.1 93.816L105.94 166.536L104.1 176.056L198.5 175.6C202.74 175.58 206.5 171.816 207.856 166.224L224.6 97.572C225.636 93.328 223.364 88.912 220.148 88.916L124.58 89.016C122.5 89.012 120.636 90.98 120.1 93.816Z" fill="#B692F6"/>
<g opacity="0.5">
<path d="M120.1 93.816L105.94 166.536L104.1 176.056L198.5 175.6C202.74 175.58 206.5 171.816 207.856 166.224L224.6 97.572C225.636 93.328 223.364 88.912 220.148 88.916L124.58 89.016C122.5 89.012 120.636 90.98 120.1 93.816Z" fill="black"/>
</g>
<path d="M189.456 161.6L179.456 81.036C179.056 77.736 176.42 75.272 173.312 75.284L151.392 75.352C150.577 75.3612 149.773 75.5361 149.028 75.8662C148.284 76.1963 147.614 76.6746 147.06 77.272L136.66 88.34L75.7 88.668C71.976 88.688 69.112 92.216 69.604 96.176L78.888 170.636C79.288 173.932 81.924 176.392 85.024 176.388L191.284 176.176C203.116 176.42 204.248 172.928 204.248 172.928C190.664 175.932 189.456 161.62 189.456 161.6Z" fill="#7879F1"/>
<g opacity="0.5">
<path d="M143.636 145.488L140.052 149.336L112.452 124.504L116.036 120.656L143.636 145.488Z" fill="white"/>
<path d="M138.552 119.804L142.512 123.368L117.54 150.188L113.576 146.624L138.552 119.804Z" fill="white"/>
</g>
<path d="M204.628 41.5122C204.499 41.4576 204.387 41.3673 204.307 41.2519C204.227 41.1364 204.182 41.0005 204.176 40.8602L204.016 37.1482C204.01 37.0328 204.032 36.9178 204.078 36.8121C204.125 36.7064 204.195 36.613 204.284 36.5392C204.373 36.4655 204.478 36.4134 204.59 36.3872C204.703 36.361 204.82 36.3613 204.932 36.3882C205.242 36.455 205.562 36.4579 205.873 36.3967C206.184 36.3355 206.479 36.2114 206.74 36.0322C206.981 35.8799 207.187 35.68 207.348 35.4447C207.508 35.2094 207.618 34.9438 207.672 34.6642C207.708 34.3811 207.687 34.0936 207.61 33.8187C207.533 33.5439 207.402 33.2873 207.224 33.0642C207.037 32.8103 206.801 32.5959 206.53 32.4332C206.26 32.2705 205.96 32.1628 205.648 32.1162C205.019 32.0812 204.396 32.2596 203.88 32.6226C203.365 32.9855 202.987 33.5118 202.808 34.1162C202.748 34.2993 202.62 34.4523 202.45 34.5434C202.281 34.6344 202.082 34.6564 201.897 34.6049C201.711 34.5533 201.553 34.4321 201.454 34.2666C201.356 34.101 201.325 33.9039 201.368 33.7162C201.64 32.7655 202.231 31.9376 203.042 31.3716C203.853 30.8056 204.834 30.536 205.82 30.6082C206.333 30.6766 206.828 30.8474 207.274 31.1106C207.719 31.3738 208.108 31.7239 208.416 32.1402C208.716 32.526 208.935 32.968 209.06 33.44C209.186 33.912 209.216 34.4044 209.148 34.8882C209.057 35.3712 208.868 35.8305 208.593 36.2377C208.318 36.645 207.962 36.9916 207.548 37.2562C206.948 37.6602 206.247 37.8888 205.524 37.9162L205.648 40.7802C205.653 40.906 205.625 41.031 205.569 41.1435C205.512 41.256 205.428 41.3524 205.325 41.4238C205.221 41.4952 205.101 41.5393 204.976 41.552C204.85 41.5646 204.724 41.5454 204.608 41.4962L204.628 41.5122Z" fill="#B692F6"/>
<path d="M205.724 43.0321C205.732 43.1529 205.705 43.2735 205.645 43.3786C205.585 43.4837 205.495 43.5686 205.386 43.6225C205.278 43.6765 205.156 43.6971 205.036 43.6817C204.916 43.6663 204.803 43.6157 204.711 43.5361C204.62 43.4566 204.555 43.3518 204.523 43.2349C204.491 43.118 204.495 42.9944 204.533 42.8796C204.572 42.7648 204.644 42.6641 204.74 42.5901C204.836 42.5162 204.951 42.4723 205.072 42.4641C205.152 42.4581 205.233 42.4681 205.309 42.4935C205.385 42.5189 205.456 42.5591 205.517 42.612C205.577 42.6648 205.627 42.7291 205.662 42.8012C205.698 42.8734 205.719 42.9518 205.724 43.0321Z" fill="#B692F6"/>
<path d="M191.776 36.2761C191.793 36.1969 191.805 36.1168 191.812 36.0361C191.812 35.8601 191.856 35.6361 191.888 35.3201C191.927 34.9321 191.993 34.5472 192.084 34.1681C192.136 33.9441 192.164 33.6961 192.244 33.4441C192.324 33.1921 192.404 32.9201 192.492 32.6441C192.955 31.2766 193.63 29.9903 194.492 28.8321C195.622 27.3323 197.054 26.0868 198.696 25.1761C199.631 24.6491 200.626 24.2381 201.66 23.9521C202.776 23.6563 203.925 23.5057 205.08 23.5041C205.688 23.4943 206.296 23.5264 206.9 23.6001C207.208 23.6321 207.512 23.7121 207.82 23.7641C208.131 23.8174 208.439 23.8923 208.74 23.9881C210.001 24.3404 211.2 24.8841 212.296 25.6001C214.733 27.1806 216.589 29.5113 217.584 32.2401C218.12 33.7018 218.391 35.2473 218.384 36.8041C218.4 38.4078 218.117 40.0006 217.548 41.5001L217.368 41.9561L217.344 42.0161L217.368 42.0761C218.372 44.3841 219.368 46.6521 220.308 48.8481L220.476 48.6561L214.476 46.3561L214.404 46.3281L214.344 46.3841C212.757 47.922 210.814 49.0433 208.688 49.6481C206.872 50.1481 204.97 50.2573 203.108 49.9684C201.247 49.6795 199.467 48.9991 197.888 47.9721C196.594 47.1238 195.454 46.062 194.516 44.8321C193.156 43.0368 192.275 40.9254 191.956 38.6961C191.908 38.2961 191.868 37.9601 191.832 37.6561C191.796 37.3521 191.832 37.1041 191.812 36.8921C191.792 36.6801 191.812 36.5401 191.812 36.4241C191.832 36.4211 191.85 36.4106 191.863 36.3948C191.875 36.379 191.881 36.3591 191.88 36.339C191.878 36.3189 191.869 36.3001 191.854 36.2863C191.84 36.2726 191.82 36.265 191.8 36.265C191.78 36.265 191.76 36.2726 191.746 36.2863C191.731 36.3001 191.722 36.3189 191.72 36.339C191.719 36.3591 191.725 36.379 191.737 36.3948C191.75 36.4106 191.768 36.4211 191.788 36.4241C191.788 36.5401 191.788 36.6961 191.788 36.8921C191.788 37.0881 191.788 37.3601 191.788 37.6641C191.788 37.9681 191.856 38.3161 191.896 38.7121C192.028 39.6742 192.257 40.6204 192.58 41.5361C193.038 42.7453 193.654 43.8886 194.412 44.9361C195.354 46.1879 196.502 47.2701 197.808 48.1361C199.407 49.1888 201.211 49.8894 203.102 50.1914C204.992 50.4935 206.925 50.3901 208.772 49.8881C210.923 49.2771 212.891 48.145 214.5 46.5921L214.368 46.6201L220.368 48.9321L220.668 49.0481L220.536 48.7401C219.584 46.5441 218.6 44.2801 217.6 41.9681V42.0841L217.784 41.6161C218.368 40.0839 218.658 38.4556 218.64 36.8161C218.653 35.2262 218.382 33.6469 217.84 32.1521C216.824 29.3689 214.926 26.9939 212.436 25.3881C211.312 24.6554 210.082 24.1021 208.788 23.7481C208.482 23.6512 208.169 23.5777 207.852 23.5281C207.54 23.4721 207.232 23.3921 206.92 23.3641C206.308 23.2881 205.692 23.2534 205.076 23.2601C203.903 23.2651 202.736 23.4237 201.604 23.7321C200.556 24.0296 199.548 24.4513 198.6 24.9881C196.942 25.9211 195.5 27.1959 194.372 28.7281C193.513 29.9054 192.847 31.2126 192.4 32.6001C192.316 32.8881 192.236 33.1641 192.164 33.4001C192.1 33.6412 192.05 33.8856 192.012 34.1321C191.926 34.5139 191.87 34.9017 191.844 35.2921C191.82 35.6001 191.804 35.8361 191.792 36.0121C191.775 36.099 191.77 36.1878 191.776 36.2761Z" fill="#42307D"/>
</svg>
